<svg width="24" height="24" viewBox="0 0 24 24" fill="none" xmlns="http://www.w3.org/2000/svg">
<path fill-rule="evenodd" clip-rule="evenodd" d="M12.0104 10.5962L17.3137 5.29289C17.7042 4.90237 18.3374 4.90237 18.7279 5.29289C19.1184 5.68342 19.1184 6.31658 18.7279 6.70711L13.4246 12.0104L18.7279 17.3137C19.1184 17.7042 19.1184 18.3374 18.7279 18.7279C18.3374 19.1184 17.7042 19.1184 17.3137 18.7279L12.0104 13.4246L6.70711 18.7279C6.31658 19.1184 5.68342 19.1184 5.29289 18.7279C4.90237 18.3374 4.90237 17.7042 5.29289 17.3137L10.5962 12.0104L5.29289 6.70711C4.90237 6.31658 4.90237 5.68342 5.29289 5.29289C5.68342 4.90237 6.31658 4.90237 6.70711 5.29289L12.0104 10.5962Z" fill="#A7A7B3"/>
</svg>
